<svg width="180" height="180" viewBox="0 0 180 180" fill="none" xmlns="http://www.w3.org/2000/svg">
<g clip-path="url(#clip0_929_9)">
<mask id="mask0_929_9" style="mask-type:luminance" maskUnits="userSpaceOnUse" x="0" y="0" width="180" height="180">
<path d="M180 0H0V180H180V0Z" fill="white"/>
</mask>
<g mask="url(#mask0_929_9)">
<path d="M144.844 0H35.1562C15.74 0 0 15.74 0 35.1562V144.844C0 164.26 15.74 180 35.1562 180H144.844C164.26 180 180 164.26 180 144.844V35.1562C180 15.74 164.26 0 144.844 0Z" fill="#0ABAB5"/>
<path d="M58.0714 52.5826V71.1268H28.7804V81.4525H49.8533V99.0482H28.7804V127.18H5.38965V52.5826H58.0714ZM89.3851 109.479H111.933V127.18H65.9942V52.5826H89.3851V109.479ZM148.479 127.918C139.559 127.918 132.183 125.846 126.353 121.701C120.593 117.487 117.467 111.341 116.976 103.263H141.841C142.193 107.548 144.089 109.69 147.531 109.69C148.795 109.69 149.849 109.409 150.692 108.847C151.605 108.215 152.062 107.266 152.062 106.002C152.062 104.246 151.113 102.841 149.217 101.788C147.32 100.664 144.37 99.3995 140.366 97.9946C135.59 96.3085 131.621 94.6579 128.46 93.0425C125.37 91.4267 122.7 89.0737 120.453 85.9831C118.205 82.8922 117.116 78.9238 117.186 74.0768C117.186 69.2301 118.416 65.1211 120.874 61.7492C123.403 58.3074 126.81 55.7087 131.094 53.9526C135.449 52.1962 140.331 51.3184 145.74 51.3184C154.871 51.3184 162.106 53.4256 167.445 57.6402C172.853 61.8547 175.698 67.7901 175.979 75.4468H150.797C150.727 73.3395 150.2 71.8292 149.217 70.9159C148.233 70.0029 147.039 69.5462 145.634 69.5462C144.651 69.5462 143.844 69.8974 143.211 70.5998C142.579 71.2323 142.263 72.1453 142.263 73.3395C142.263 75.0253 143.176 76.4301 145.002 77.5541C146.899 78.6077 149.884 79.9071 153.958 81.4525C158.665 83.2086 162.528 84.8943 165.548 86.5098C168.639 88.1255 171.308 90.3731 173.556 93.2531C175.804 96.1331 176.928 99.7507 176.928 104.105C176.928 108.671 175.804 112.781 173.556 116.433C171.308 120.015 168.042 122.825 163.757 124.862C159.472 126.899 154.38 127.918 148.479 127.918Z" fill="white"/>
</g>
</g>
<defs>
<clipPath id="clip0_929_9">
<rect width="180" height="180" fill="white"/>
</clipPath>
</defs>
</svg>
