<svg width="105" height="27" viewBox="0 0 105 27" fill="none" xmlns="http://www.w3.org/2000/svg">
<g clip-path="url(#clip0_939_2906)">
<path d="M27.826 9.57584H38.3545V11.5618H34.2153V22.728H31.9377V11.5618H27.8163V9.57507H27.8253L27.826 9.57584ZM37.9051 13.2044H39.8514V15.0427H39.8878C39.9524 14.7827 40.0713 14.5319 40.2458 14.2902C40.6191 13.7723 41.1243 13.3708 41.7055 13.1302C42.0008 13.0098 42.3151 12.9468 42.6326 12.9444C42.8703 12.9444 43.0457 12.9535 43.1378 12.9635C43.2291 12.9727 43.3205 12.991 43.4215 13.0002V15.0236C43.2725 14.9968 43.1226 14.9751 42.9721 14.9586C42.8227 14.9404 42.6724 14.9312 42.5219 14.9311C42.1728 14.9311 41.843 15.0052 41.531 15.1452C41.219 15.2836 40.9523 15.497 40.7235 15.7669C40.4794 16.0687 40.2924 16.415 40.1723 16.7878C40.0349 17.1961 39.9702 17.6595 39.9702 18.1895V22.7188H37.8962V13.2044H37.9051ZM52.9591 22.7288H50.9214V21.4012H50.8843C50.6273 21.8845 50.2514 22.2654 49.7462 22.5529C49.2411 22.8404 48.727 22.9888 48.2041 22.9888C46.965 22.9888 46.0646 22.6829 45.5149 22.0604C44.9637 21.4387 44.6881 20.5012 44.6881 19.2478V13.2051H46.7629V19.0437C46.7629 19.8795 46.9189 20.4737 47.2406 20.817C47.5526 21.1604 48.002 21.337 48.571 21.337C49.0115 21.337 49.3696 21.272 49.663 21.1321C49.9572 20.9929 50.1957 20.817 50.3702 20.5845C50.5537 20.362 50.6822 20.0837 50.7654 19.7678C50.8471 19.452 50.8843 19.1087 50.8843 18.7378V13.2143H52.9591V22.7288ZM56.4929 19.6753C56.5575 20.2871 56.7863 20.7153 57.1815 20.9654C57.5849 21.207 58.0625 21.337 58.6226 21.337C58.8158 21.337 59.0357 21.3179 59.2838 21.2904C59.5311 21.2621 59.7696 21.1971 59.9813 21.1145C60.2012 21.0304 60.375 20.9004 60.5221 20.7337C60.6603 20.5654 60.7242 20.3528 60.7153 20.0837C60.7141 19.9587 60.6873 19.8355 60.6368 19.7219C60.5862 19.6083 60.513 19.507 60.4218 19.4245C60.2376 19.2486 60.0088 19.1186 59.7235 19.007C59.4058 18.8936 59.0806 18.8037 58.7504 18.7378C58.3834 18.6636 58.0165 18.5795 57.6406 18.4961C57.2619 18.4118 56.8879 18.3064 56.5203 18.1803C56.1756 18.0666 55.8504 17.8975 55.5569 17.6794C55.2708 17.4739 55.0375 17.1999 54.8771 16.8811C54.7033 16.5561 54.6201 16.1569 54.6201 15.6744C54.6201 15.1544 54.7486 14.7277 54.9967 14.3744C55.247 14.024 55.5701 13.7356 55.9424 13.5301C56.3425 13.3124 56.7727 13.1589 57.2179 13.0751C57.6859 12.9918 58.1361 12.9451 58.558 12.9451C59.0446 12.9451 59.5126 13.001 59.9538 13.1034C60.381 13.1976 60.7882 13.3704 61.1558 13.6135C61.5138 13.846 61.8073 14.1518 62.0465 14.5235C62.2849 14.8944 62.432 15.3494 62.4959 15.8785H60.3297C60.2287 15.3777 60.0081 15.0343 59.6507 14.8668C59.2927 14.691 58.8797 14.6068 58.4206 14.6068C58.2735 14.6068 58.0989 14.616 57.8976 14.6443C57.7036 14.6709 57.5127 14.7175 57.3278 14.7835C57.1588 14.8475 57.0055 14.9488 56.8784 15.0802C56.8167 15.1488 56.7688 15.2292 56.7373 15.3168C56.7058 15.4045 56.6914 15.4976 56.6949 15.591C56.6949 15.851 56.7863 16.0552 56.9609 16.2127C57.1354 16.3702 57.365 16.5002 57.6495 16.6119C57.934 16.7144 58.2557 16.8069 58.6226 16.8811C58.9896 16.9552 59.3655 17.0386 59.7518 17.1227C60.1277 17.2061 60.4946 17.3177 60.8624 17.4378C61.2293 17.5586 61.5502 17.7261 61.8355 17.9394C62.12 18.1528 62.3495 18.4128 62.5234 18.7286C62.6979 19.0437 62.7901 19.4428 62.7901 19.907C62.7901 20.4729 62.6615 20.947 62.4038 21.3462C62.1475 21.7362 61.8169 22.0604 61.4128 22.3021C60.9898 22.5529 60.5314 22.7346 60.0541 22.8404C59.5686 22.9504 59.073 23.0063 58.5758 23.0071C58.0191 23.0136 57.4639 22.9449 56.9245 22.803C56.4193 22.6638 55.9788 22.4596 55.6118 22.1912C55.2491 21.9199 54.9509 21.5674 54.7397 21.1604C54.5287 20.752 54.4181 20.2595 54.4002 19.6937H56.4929V19.6753ZM63.3405 13.2059H64.9102V10.3459H66.985V13.2059H68.857V14.7735H66.9857V19.8611C66.9857 20.0829 66.9946 20.2695 67.0132 20.4362C67.031 20.5945 67.0771 20.7337 67.1417 20.8445C67.2119 20.961 67.3186 21.0495 67.4441 21.0954C67.5822 21.1512 67.7561 21.1795 67.9953 21.1795C68.1416 21.1795 68.2887 21.1795 68.4358 21.1695C68.5829 21.1604 68.7292 21.142 68.8763 21.1045V22.7288C68.6467 22.7571 68.4172 22.7754 68.2062 22.803C67.9838 22.8296 67.7601 22.8421 67.5362 22.8404C66.9857 22.8404 66.5452 22.7846 66.2139 22.6829C65.8841 22.5804 65.6174 22.4229 65.4339 22.2187C65.2407 22.0145 65.1219 21.7637 65.0483 21.4571C64.9768 21.1122 64.937 20.7612 64.9295 20.4087V14.7911H63.3598V13.2036H63.3413L63.3405 13.2059ZM70.3256 13.2059H72.2905V14.4952H72.3276C72.6203 13.9385 73.0244 13.5485 73.5474 13.3076C74.0819 13.0629 74.6613 12.9393 75.2463 12.9451C75.9891 12.9451 76.6317 13.0751 77.1829 13.3443C77.7334 13.6043 78.1925 13.9668 78.5594 14.4302C78.9264 14.8944 79.1931 15.4327 79.3766 16.046C79.5635 16.684 79.6564 17.3472 79.6522 18.0136C79.6522 18.6537 79.5697 19.2754 79.4041 19.8703C79.2519 20.4442 79 20.9849 78.6605 21.4662C78.3268 21.9303 77.8933 22.3085 77.3939 22.5712C76.8798 22.8496 76.2833 22.9888 75.5858 22.9888C75.2809 22.9884 74.9766 22.9603 74.6765 22.9047C74.3772 22.8491 74.0849 22.7591 73.8051 22.6362C73.5272 22.5169 73.2673 22.3572 73.0333 22.1621C72.8023 21.9725 72.6011 21.7473 72.4368 21.4945H72.3997V26.2472H70.3256V13.2044V13.2059ZM77.5774 17.9761C77.5778 17.5528 77.5223 17.1315 77.4125 16.7235C77.3107 16.3371 77.1427 15.9724 76.9162 15.6468C76.7013 15.3371 76.4225 15.0801 76.0998 14.8944C75.7532 14.7016 75.3647 14.6026 74.9707 14.6068C74.0986 14.6068 73.4374 14.9127 72.9969 15.526C72.5564 16.1385 72.3358 16.956 72.3358 17.9761C72.3358 18.4587 72.3915 18.9045 72.5103 19.3128C72.6292 19.7212 72.7949 20.0745 73.0333 20.3712C73.2636 20.6687 73.5385 20.9004 73.8601 21.0671C74.181 21.2437 74.5577 21.3271 74.9796 21.3271C75.4573 21.3271 75.8517 21.2254 76.1823 21.0304C76.5024 20.8408 76.7781 20.581 76.9898 20.2695C77.2008 19.9537 77.3575 19.6004 77.4489 19.202C77.5333 18.7991 77.5764 18.3882 77.5774 17.9761ZM81.2397 9.57584H83.3145V11.5625H81.2397V9.57584ZM81.2397 13.2051H83.3145V22.7288H81.2397V13.2051ZM85.1686 9.57584H87.2434V22.7288H85.1686V9.57584ZM93.6045 22.9888C92.8513 22.9888 92.1812 22.8588 91.5943 22.6087C91.0317 22.3712 90.5225 22.0172 90.0982 21.5687C89.6857 21.1112 89.3698 20.5707 89.1704 19.9812C88.952 19.3305 88.8435 18.6462 88.8495 17.9578C88.8495 17.2336 88.9594 16.566 89.1704 15.9527C89.37 15.3635 89.6859 14.8233 90.0982 14.366C90.5016 13.9201 91.0067 13.5768 91.5943 13.326C92.1812 13.0751 92.8513 12.9451 93.6045 12.9451C94.357 12.9451 95.0271 13.0751 95.6147 13.326C96.2023 13.5768 96.6978 13.9301 97.1108 14.366C97.5232 14.8231 97.8389 15.3634 98.0379 15.9527C98.2489 16.5652 98.3588 17.2336 98.3588 17.9578C98.3588 18.6919 98.2489 19.3687 98.0379 19.9812C97.839 20.5708 97.5233 21.1114 97.1108 21.5687C96.7067 22.0145 96.2023 22.3579 95.6147 22.6087C95.0271 22.8588 94.357 22.9888 93.6045 22.9888ZM93.6045 21.3271C94.0636 21.3271 94.467 21.2254 94.8065 21.0304C95.1374 20.8408 95.4229 20.5774 95.6422 20.2595C95.8621 19.9445 96.0181 19.582 96.1287 19.1828C96.2298 18.7837 96.2847 18.3753 96.2847 17.9578C96.2847 17.5494 96.2298 17.1502 96.1287 16.7419C96.0341 16.3546 95.869 15.9892 95.6422 15.6652C95.4224 15.3504 95.1368 15.0903 94.8065 14.9043C94.467 14.7093 94.0636 14.6068 93.6045 14.6068C93.1454 14.6068 92.7413 14.7093 92.4018 14.9043C92.0736 15.0932 91.7888 15.3527 91.5669 15.6652C91.3432 15.9911 91.1784 16.3558 91.0803 16.7419C90.9786 17.1388 90.926 17.5473 90.9235 17.9578C90.9235 18.3753 90.9793 18.7837 91.0803 19.1828C91.1813 19.582 91.3462 19.9445 91.5669 20.2595C91.7867 20.5754 92.0623 20.8354 92.4018 21.0304C92.7413 21.2345 93.1454 21.3271 93.6045 21.3271ZM98.965 13.2059H100.535V10.3459H102.609V13.2059H104.481V14.7735H102.609V19.8611C102.609 20.0829 102.618 20.2695 102.636 20.4362C102.655 20.5945 102.701 20.7337 102.765 20.8445C102.836 20.9612 102.942 21.0497 103.068 21.0954C103.206 21.1512 103.38 21.1795 103.619 21.1795C103.765 21.1795 103.912 21.1795 104.059 21.1695C104.207 21.1604 104.353 21.142 104.5 21.1045V22.7288C104.27 22.7571 104.041 22.7754 103.83 22.803C103.608 22.8296 103.384 22.8421 103.16 22.8404C102.609 22.8404 102.168 22.7846 101.838 22.6829C101.508 22.5804 101.241 22.4229 101.058 22.2187C100.865 22.0145 100.746 21.7637 100.672 21.4571C100.601 21.1122 100.561 20.7612 100.553 20.4087V14.7911H98.9836V13.2036H98.965V13.2059Z" fill="#1C5E59"/>
<path d="M25.4028 9.57513H15.8935L12.9562 0.422363L10.0086 9.57589L0.5 9.56595L8.2012 15.2278L5.25503 24.3707L12.9562 18.718L20.6485 24.3707L17.7113 15.2278L25.4028 9.57513Z" fill="#1C5E59"/>
<path d="M18.3717 17.2987L17.7105 15.2286L12.9562 18.7188L18.3717 17.2987Z" fill="#1C5E59"/>
</g>
<defs>
<clipPath id="clip0_939_2906">
<rect width="104" height="26" fill="white" transform="translate(0.5 0.422363)"/>
</clipPath>
</defs>
</svg>
